<svg width="162" height="46" viewBox="0 0 162 46" fill="none" xmlns="http://www.w3.org/2000/svg">
<path d="M29.9962 4.47048C29.9962 5.90055 29.1782 6.61558 27.5422 6.61558C27.0184 6.60423 26.4956 6.56369 25.9763 6.49416C25.4582 6.42381 24.9367 6.38205 24.414 6.36906C23.8798 6.36906 23.6145 6.57511 23.6145 6.98352C23.6145 7.55383 23.6476 8.43321 23.7066 9.61798C23.7655 10.8027 23.7987 11.7005 23.7987 12.3113C23.7987 32.8547 19.9139 43.1251 12.1444 43.1227C9.03951 43.1227 6.19747 41.489 3.61826 38.2217C1.20609 35.1604 0 32.0366 0 28.8503C0.0351361 27.6315 0.284572 26.4284 0.736916 25.2959C1.34119 23.7064 2.06459 22.9105 2.90713 22.908C4.23358 22.908 5.23825 23.5409 5.92112 24.8066C6.54822 25.9295 6.8601 27.2007 6.82384 28.486V32.4046C6.82384 33.5452 7.36548 34.7287 8.44875 35.9552C9.53201 37.1817 10.646 37.7949 11.7907 37.7949C15.9665 37.7949 18.0544 32.2206 18.0544 21.072C18.0544 19.1096 17.8911 14.9396 17.5644 8.56199C17.0731 8.68464 15.7847 9.27579 13.6993 10.3355C11.8201 11.3166 10.6755 11.8072 10.2652 11.8072C9.86871 11.8109 9.47724 11.7181 9.12476 11.5366C8.77229 11.3552 8.46942 11.0906 8.24241 10.766C7.72683 10.1225 7.44496 9.32351 7.44285 8.49944C7.44285 7.15277 8.85405 6.0097 11.6764 5.07023C13.7202 4.45699 15.7442 3.84376 17.7486 3.23052C18.1441 1.69253 19.0567 0.922306 20.4863 0.919853C20.894 0.919853 21.6715 1.26694 22.8186 1.96113C23.3233 1.88459 23.8238 1.78266 24.3182 1.65573C24.8281 1.51517 25.3521 1.43247 25.8805 1.40921C26.8652 1.42294 27.8248 1.72066 28.6439 2.26652C29.5454 2.83805 29.9962 3.57271 29.9962 4.47048Z" fill="url(#paint0_linear_110_512)"/>
<path d="M47.2953 31.9741C47.2953 37.243 47.1319 40.9592 46.8052 43.1227C46.5989 44.3884 45.7392 45.0213 44.226 45.0213C41.9342 45.0213 40.9111 43.8782 41.1568 41.5921C39.1699 42.5588 36.989 43.0621 34.7788 43.0638C32.6515 43.0639 30.5602 42.5164 28.7066 41.4743C26.4148 40.2086 25.2701 38.5946 25.2725 36.6322C25.2725 34.7165 26.5806 32.9197 29.1966 31.2419C31.5695 29.7333 33.7987 28.9778 35.8841 28.9754H41.0978V27.5036C41.1396 23.2502 39.8721 21.1223 37.2953 21.1198C34.0627 21.1198 32.4464 22.6161 32.4464 25.6087C32.4464 26.6218 31.8741 27.1271 30.7294 27.1246C29.9139 27.0754 29.1423 26.7391 28.5518 26.1753C27.7977 25.5425 27.4194 24.879 27.417 24.1848C27.3872 23.123 27.5916 22.0677 28.0156 21.0936C28.4397 20.1195 29.0731 19.2504 29.8709 18.5479C31.481 17.0863 33.5907 16.2962 35.7662 16.3403C43.4547 16.3501 47.2977 21.5613 47.2953 31.9741ZM41.1015 34.1817C41.1015 33.3686 40.4862 32.9565 39.2592 32.9565C34.1499 32.9565 31.5941 34.1621 31.5916 36.5733C31.5916 37.8808 32.7166 38.5332 34.9667 38.5308C36.3598 38.5303 37.7228 38.1264 38.8908 37.3681C40.3646 36.5096 41.1015 35.4462 41.1015 34.178V34.1817Z" fill="url(#paint1_linear_110_512)"/>
<path d="M75.6334 44.2854C74.0785 45.4309 72.8503 46.0024 71.9488 46C70.7624 46 69.0429 44.7735 66.7904 42.3206C65.1938 40.6035 63.6192 38.8668 62.0668 37.1105C61.1677 36.0509 59.7369 34.5607 57.7742 32.6401L57.59 32.7652V38.1518C57.6342 38.6527 57.769 39.1414 57.9879 39.5941C58.2128 40.0655 58.3478 40.5746 58.3859 41.0953C58.3737 41.3994 58.2863 41.6957 58.1313 41.9577C57.9763 42.2196 57.7587 42.4392 57.4979 42.5965C56.9788 42.9974 56.3448 43.2217 55.6888 43.2368C55.2005 43.2532 54.714 43.1692 54.2595 42.9901C53.8051 42.811 53.3923 42.5406 53.0468 42.1956C52.7013 41.8506 52.4305 41.4384 52.2512 40.9846C52.0718 40.5307 51.9878 40.045 52.0042 39.5573V31.4626C52.023 30.7141 52.0845 29.9671 52.1884 29.2256C52.2904 28.485 52.3519 27.7394 52.3726 26.9922V10.5342C52.4149 8.52132 52.2432 6.50969 51.8605 4.53303C51.7382 4.01141 51.6678 3.47898 51.6505 2.94353C51.6505 2.16717 52.1184 1.47176 53.0617 0.860982C53.7697 0.325509 54.6277 0.0244753 55.5156 0C56.2341 0.0367045 56.9266 0.280831 57.5089 0.702767C58.2262 1.17373 58.5848 1.69498 58.5848 2.26652C58.494 2.8466 58.3622 3.41956 58.1906 3.98112C57.9302 4.9623 57.8 6.47331 57.8 8.51416C57.8 9.16909 57.7349 14.6208 57.6047 24.8691C57.7669 24.7072 59.9776 22.686 64.237 18.8055C67.7668 15.5382 69.8388 13.9045 70.4529 13.9045C72.6317 13.9045 73.6794 15.2315 73.5958 17.8856V18.5001C71.2105 19.9548 68.928 21.5714 66.7646 23.3385C63.2323 26.076 61.465 27.8924 61.4625 28.7877C61.4625 28.8736 62.5679 30.1601 64.7786 32.6474C66.8739 35.017 68.1881 36.4887 68.7211 37.0627C71.1775 39.6334 73.4779 41.3897 75.6224 42.3316L75.6334 44.2854Z" fill="url(#paint2_linear_110_512)"/>
<path d="M93.9126 36.2017C93.9126 38.1224 93.0946 39.7965 91.4587 41.2241C89.6606 42.7768 87.2484 43.5532 84.2222 43.5532C82.7724 43.565 81.3342 43.2938 79.9886 42.7548C75.0758 40.9175 72.6194 39.4273 72.6194 38.2843C72.6194 36.4887 73.9078 35.5897 76.4845 35.5873C76.853 35.5873 77.2399 35.6093 77.6489 35.6498C77.7741 36.8763 78.7567 37.8575 80.5965 38.5933C82.0469 39.2183 83.6268 39.4846 85.2023 39.3697C86.3887 39.2887 86.9819 38.8607 86.9819 38.0856C86.9723 37.8987 86.9414 37.7136 86.8898 37.5337C86.8362 37.3442 86.8052 37.1491 86.7977 36.9523C86.7977 36.8076 86.0202 36.4912 84.4653 36.003C82.7066 35.4732 81.724 35.1666 81.5177 35.0832C76.8505 32.3089 74.517 28.9606 74.517 25.0384C74.5068 22.6987 75.214 20.4119 76.5435 18.4854C78.0542 16.2777 79.9345 15.1739 82.1846 15.1739C83.8598 15.1739 85.7721 15.8264 87.9215 17.1313C90.0708 18.4363 91.3936 19.8516 91.8898 21.3774C92.1777 22.2278 92.3427 23.1149 92.3798 24.0118C92.3988 24.6391 92.2949 25.264 92.074 25.8515C91.8271 26.466 91.5803 27.0768 91.3371 27.6912C90.6592 28.1878 89.8452 28.4652 89.0048 28.486C88.5945 28.486 87.9104 28.2309 86.9524 27.7207C85.9945 27.2105 85.513 26.7714 85.5081 26.4035C85.5081 26.2416 85.7537 25.7105 86.245 24.8103C86.4952 24.4026 86.6431 23.9406 86.6761 23.4636C86.6761 21.0107 85.7144 19.7842 83.7911 19.7842C82.6464 19.7842 81.767 20.5201 81.1529 21.9918C80.6969 23.1646 80.4681 24.4132 80.4786 25.6712C80.4786 27.3049 81.6442 28.7767 83.9753 30.0865C86.1025 31.026 88.2494 31.9851 90.4159 32.9638C92.7495 34.0211 93.9151 35.1004 93.9126 36.2017Z" fill="url(#paint3_linear_110_512)"/>
<path d="M116.241 36.9965C116.241 39.0398 114.851 40.6342 112.07 41.7797C109.913 42.6757 107.598 43.1335 105.261 43.1264C98.9531 43.1239 95.7991 39.55 95.7991 32.4046C95.7991 29.461 96.5152 26.1937 97.9472 22.6026C99.7035 18.1873 101.83 15.9797 104.325 15.9797C106.578 15.9797 109.001 16.9805 111.595 18.9821C114.189 20.9837 115.487 23.0687 115.49 25.2371C115.49 27.9353 114.283 30.0792 111.871 31.6687C109.754 33.1012 107.221 33.8162 104.274 33.8138C103.699 33.8138 102.778 33.4458 101.514 32.7725C101.676 36.6506 102.821 38.5897 104.948 38.5897C106.823 38.5675 108.656 38.0385 110.254 37.059C111.988 36.0386 113.102 35.5284 113.596 35.5284C115.357 35.5284 116.239 36.0178 116.241 36.9965ZM109.554 25.421C109.55 24.3849 109.241 23.3728 108.666 22.5106C108.43 22.0917 108.088 21.743 107.672 21.5005C107.257 21.2579 106.785 21.1303 106.304 21.1309C105.669 21.1135 105.041 21.2699 104.488 21.5831C103.935 21.8964 103.479 22.3545 103.168 22.908C102.536 24.0054 102.217 25.2553 102.247 26.5212C102.235 26.8771 102.3 27.2314 102.438 27.5597C102.576 27.8881 102.784 28.1827 103.047 28.4234C103.599 28.9222 104.325 29.1862 105.07 29.1593C108.059 29.1569 109.554 27.9108 109.554 25.421Z" fill="url(#paint4_linear_110_512)"/>
<path d="M126.422 40.7348C126.424 41.093 126.346 41.4472 126.192 41.7709C126.038 42.0945 125.813 42.3793 125.534 42.6039C124.966 43.1033 124.234 43.3758 123.478 43.3692C120.901 43.3692 119.613 40.0001 119.613 33.2619C119.613 30.1957 119.643 25.6013 119.705 19.4788C119.766 13.3563 119.797 8.7619 119.797 5.69573C119.78 4.97882 119.718 4.26365 119.613 3.55431C119.511 2.86423 119.45 2.1689 119.428 1.47176C120.779 0.573988 121.843 0.123874 122.619 0.121421C123.553 0.13228 124.458 0.444664 125.198 1.01184C125.573 1.25215 125.882 1.58246 126.097 1.97259C126.311 2.36272 126.424 2.80026 126.425 3.24524C126.408 3.78904 126.305 4.32669 126.12 4.83843C125.832 5.82083 125.67 6.35066 125.629 6.43161C125.094 8.96304 124.829 12.5566 124.834 17.2123V28.6185C124.954 33.7696 125.383 37.3632 126.12 39.3991C126.29 39.8258 126.392 40.2765 126.422 40.7348Z" fill="url(#paint5_linear_110_512)"/>
<path d="M136.665 18.8055C136.618 19.8617 136.454 20.9094 136.175 21.9293C135.896 22.9492 135.731 23.9969 135.685 25.0531V37.6698C135.685 38.4449 135.93 39.6714 136.422 41.3492C135.803 42.2911 135.121 42.7584 134.377 42.7584C131.775 42.7584 130.351 41.4719 130.103 38.8987C129.692 34.1229 129.488 30.5293 129.491 28.1181C129.457 24.7227 129.621 21.3283 129.981 17.9518V17.3337C129.981 16.5978 130.548 16.2299 131.683 16.2299C132.726 16.2363 133.759 16.4436 134.723 16.8407C136.018 17.292 136.665 17.9469 136.665 18.8055ZM137.217 10.2288C137.232 10.6409 137.157 11.0512 136.999 11.4321C136.841 11.8129 136.602 12.1554 136.3 12.4364C135.686 13.0092 134.87 13.3172 134.03 13.2937C132.939 13.2845 131.886 12.8939 131.053 12.1899C130.627 11.8809 130.279 11.4754 130.04 11.0066C129.8 10.5379 129.675 10.0191 129.675 9.49288C129.661 9.07775 129.739 8.6647 129.904 8.28312C130.068 7.90154 130.315 7.56083 130.626 7.28523C131.273 6.70874 132.117 6.40192 132.984 6.42793C134.064 6.41851 135.11 6.79873 135.932 7.49864C136.342 7.82399 136.672 8.23969 136.895 8.71328C137.118 9.18686 137.228 9.70552 137.217 10.2288Z" fill="url(#paint6_linear_110_512)"/>
<path d="M162 41.9453C161.383 42.8848 160.627 43.3545 159.73 43.3545C159.034 43.3545 157.888 42.9424 156.293 42.1293V41.3934C156.293 40.4956 156.313 39.1686 156.355 37.4123C156.397 35.6559 156.418 34.3694 156.418 33.5525C156.418 24.8152 155.116 20.4453 152.512 20.4428C151.775 20.4428 150.946 21.0168 150.014 22.1574C147.125 25.6725 145.681 29.9001 145.681 34.8403C145.723 35.8804 145.857 36.9148 146.083 37.931C146.305 38.9489 146.439 39.9843 146.481 41.0254C146.48 41.3092 146.406 41.588 146.266 41.8349C146.126 42.0817 145.924 42.2883 145.681 42.4346C145.18 42.7933 144.58 42.9863 143.964 42.9866C141.508 42.9866 140.279 41.4338 140.279 38.3284V25.5425C140.291 25.0608 140.333 24.5803 140.405 24.1038C140.473 23.6271 140.514 23.1467 140.526 22.6652C140.506 21.946 140.434 21.2292 140.313 20.5201C140.193 19.8316 140.12 19.1358 140.095 18.4375C140.095 17.7863 140.464 17.1608 141.23 16.5684C141.996 15.976 142.674 15.6816 143.286 15.6816C144.185 15.6816 145.105 16.1919 146.046 17.2123L145.862 19.6628C147.367 17.254 149.226 16.0496 151.436 16.0496C152.871 16.0496 154.384 16.5402 155.976 17.5214C157.39 18.3297 158.589 19.4654 159.472 20.8328C161.148 23.9382 161.986 28.0224 161.989 33.0853L162 41.9453Z" fill="url(#paint7_linear_110_512)"/>
<defs>
<linearGradient id="paint0_linear_110_512" x1="0" y1="0" x2="162.088" y2="46.1123" gradientUnits="userSpaceOnUse">
<stop stop-color="#8D79BF"/>
<stop offset="1" stop-color="#E87E7B"/>
</linearGradient>
<linearGradient id="paint1_linear_110_512" x1="0" y1="0" x2="162.088" y2="46.1123" gradientUnits="userSpaceOnUse">
<stop stop-color="#8D79BF"/>
<stop offset="1" stop-color="#E87E7B"/>
</linearGradient>
<linearGradient id="paint2_linear_110_512" x1="0" y1="0" x2="162.088" y2="46.1123" gradientUnits="userSpaceOnUse">
<stop stop-color="#8D79BF"/>
<stop offset="1" stop-color="#E87E7B"/>
</linearGradient>
<linearGradient id="paint3_linear_110_512" x1="0" y1="0" x2="162.088" y2="46.1123" gradientUnits="userSpaceOnUse">
<stop stop-color="#8D79BF"/>
<stop offset="1" stop-color="#E87E7B"/>
</linearGradient>
<linearGradient id="paint4_linear_110_512" x1="0" y1="0" x2="162.088" y2="46.1123" gradientUnits="userSpaceOnUse">
<stop stop-color="#8D79BF"/>
<stop offset="1" stop-color="#E87E7B"/>
</linearGradient>
<linearGradient id="paint5_linear_110_512" x1="0" y1="0" x2="162.088" y2="46.1123" gradientUnits="userSpaceOnUse">
<stop stop-color="#8D79BF"/>
<stop offset="1" stop-color="#E87E7B"/>
</linearGradient>
<linearGradient id="paint6_linear_110_512" x1="0" y1="0" x2="162.088" y2="46.1123" gradientUnits="userSpaceOnUse">
<stop stop-color="#8D79BF"/>
<stop offset="1" stop-color="#E87E7B"/>
</linearGradient>
<linearGradient id="paint7_linear_110_512" x1="0" y1="0" x2="162.088" y2="46.1123" gradientUnits="userSpaceOnUse">
<stop stop-color="#8D79BF"/>
<stop offset="1" stop-color="#E87E7B"/>
</linearGradient>
</defs>
</svg>
