<svg xmlns="http://www.w3.org/2000/svg" viewBox="0 0 439.67 125.02"><g id="Layer_2" data-name="Layer 2"><g id="Layer_1-2" data-name="Layer 1"><path d="M81.41,12.15q0,5.83-6.66,5.83a38.22,38.22,0,0,1-4.25-.33,38.59,38.59,0,0,0-4.24-.34c-1.45,0-2.17.56-2.17,1.67,0,1.55.09,3.94.25,7.16s.25,5.66.25,7.32q0,83.75-31.63,83.74-12.64,0-23.14-13.32Q0,91.4,0,78.41a28.27,28.27,0,0,1,2-9.66q2.46-6.48,5.89-6.49,5.4,0,8.18,5.16a19.41,19.41,0,0,1,2.45,10V88.07q0,4.65,4.41,9.65t9.07,5q17,0,17-45.45,0-8-1.33-34-2,.5-10.49,4.82-7.65,4-9.32,4a6.62,6.62,0,0,1-5.49-2.83,9.9,9.9,0,0,1-2.17-6.16q0-5.49,11.49-9.32,8.32-2.5,16.48-5Q49.78,2.51,55.6,2.5q1.66,0,6.33,2.83A41.18,41.18,0,0,0,66,4.5a19.09,19.09,0,0,1,4.24-.67,13.86,13.86,0,0,1,7.5,2.33Q81.41,8.49,81.41,12.15Z"/><path d="M128.36,86.9q0,21.48-1.33,30.3-.84,5.16-7,5.16-9.33,0-8.33-9.32a39.59,39.59,0,0,1-17.31,4,33.59,33.59,0,0,1-16.48-4.32q-9.33-5.16-9.32-13.16,0-7.81,10.65-14.65,9.66-6.15,18.15-6.16h14.15v-4q.17-17.34-10.32-17.35-13.16,0-13.16,12.2,0,4.13-4.66,4.12a9.37,9.37,0,0,1-5.91-2.58q-3.07-2.58-3.08-5.41a19.69,19.69,0,0,1,6.66-15.32,23.09,23.09,0,0,1,16-6Q128.37,44.45,128.36,86.9Zm-16.81,6c0-2.21-1.67-3.33-5-3.33q-20.8,0-20.81,9.83,0,5.33,9.16,5.32a19.55,19.55,0,0,0,10.65-3.16Q111.55,98.06,111.55,92.89Z"/><path d="M205.27,120.36q-6.33,4.67-10,4.66-4.83,0-14-10-6.5-7-12.82-14.16-3.66-4.32-11.65-12.15l-.5.34v14.64a11.29,11.29,0,0,0,1.08,3.92,11.42,11.42,0,0,1,1.08,4.08,5,5,0,0,1-2.41,4.08,8.34,8.34,0,0,1-4.91,1.74,9.68,9.68,0,0,1-10-10v-22a53.53,53.53,0,0,1,.5-6.08,55.87,55.87,0,0,0,.5-6.07V28.63a77.37,77.37,0,0,0-1.39-16.31A22.08,22.08,0,0,1,140.18,8c0-2.11,1.27-4,3.83-5.66A11.56,11.56,0,0,1,150.67,0a10.09,10.09,0,0,1,5.41,1.91Q159,3.83,159,6.16a33.91,33.91,0,0,1-1.07,4.66q-1.06,4-1.06,12.32,0,2.67-.53,44.45.66-.66,18-16.48,14.37-13.32,16.87-13.32,8.87,0,8.53,10.82v1.67A165.61,165.61,0,0,0,181.2,63.43q-14.38,11.16-14.39,14.81,0,.35,9,10.49,8.53,9.66,10.7,12,10,10.48,18.73,14.32Z"/><path d="M254.88,98.39q0,7.83-6.66,13.65-7.32,6.33-19.64,6.33a30.2,30.2,0,0,1-11.49-2.17q-20-7.49-20-12.15,0-7.32,10.49-7.33c1,0,2.05.06,3.16.17q.51,5,8,8A26.65,26.65,0,0,0,231.24,107q4.83-.33,4.83-3.49a6.7,6.7,0,0,0-.25-1.5,6.76,6.76,0,0,1-.25-1.58q0-.59-6.33-2.58-7.16-2.16-8-2.5-19-11.31-19-27.3a31.15,31.15,0,0,1,5.5-17.81q6.15-9,15.31-9,6.82,0,15.57,5.32T249.39,58.1a25.67,25.67,0,0,1,1.33,7.16,13.1,13.1,0,0,1-.83,5c-.67,1.67-1.34,3.33-2,5a11.17,11.17,0,0,1-6.33,2.16q-1.67,0-5.57-2.08t-3.92-3.58q0-.66,2-4.33a8.07,8.07,0,0,0,1.17-3.66q0-10-7.83-10-4.66,0-7.16,6a27,27,0,0,0-1.83,10q0,6.66,9.49,12,8.66,3.83,17.48,7.82Q254.89,93.9,254.88,98.39Z"/><path d="M315.48,100.55q0,8.33-11.32,13a47.75,47.75,0,0,1-18.48,3.66Q260,117.2,260,88.07q0-12,5.83-26.64,7.15-18,17.31-18,9.17,0,19.73,8.16t10.57,17q0,11-9.82,17.48Q295,91.91,283,91.9c-1.56,0-4.06-1-7.49-2.83q.66,15.81,9.32,15.81a28.16,28.16,0,0,0,14.4-4.16q7.06-4.16,9.07-4.16Q315.47,96.56,315.48,100.55ZM297.33,69.09a14.35,14.35,0,0,0-2.41-7.91,7.34,7.34,0,0,0-6.41-3.75A9.46,9.46,0,0,0,280,62.26a18.79,18.79,0,0,0-2.5,9.82,6.71,6.71,0,0,0,2.17,5.17,7.77,7.77,0,0,0,5.49,2Q297.33,79.24,297.33,69.09Z"/><path d="M343.11,110.71a6.46,6.46,0,0,1-2.41,5.08,8.33,8.33,0,0,1-5.58,2.08q-10.49,0-10.49-27.47,0-12.5.25-37.46t.25-37.46a47.35,47.35,0,0,0-.5-5.82,49.44,49.44,0,0,1-.5-5.66q5.5-3.66,8.66-3.67a11.73,11.73,0,0,1,7,2.42,7.24,7.24,0,0,1,3.33,6.07,14.08,14.08,0,0,1-.83,4.33c-.78,2.67-1.22,4.11-1.33,4.33q-2.18,10.32-2.16,29.3v31q.49,21,3.49,29.3A11.93,11.93,0,0,1,343.11,110.71Z"/><path d="M370.91,51.11a38.72,38.72,0,0,1-1.33,8.49,38.72,38.72,0,0,0-1.33,8.49v34.29q0,3.16,2,10c-1.68,2.56-3.53,3.83-5.55,3.83q-10.59,0-11.6-10.49-1.67-19.47-1.66-29.3a238.73,238.73,0,0,1,1.33-27.63V47.11q0-3,4.62-3a22,22,0,0,1,8.25,1.66Q370.91,47.61,370.91,51.11Zm1.5-23.31a7.83,7.83,0,0,1-2.49,6,8.67,8.67,0,0,1-6.16,2.33,12.67,12.67,0,0,1-8.08-3,9.06,9.06,0,0,1-3.74-7.33,7.68,7.68,0,0,1,2.58-6,9.2,9.2,0,0,1,6.4-2.33,12.16,12.16,0,0,1,8,2.91A9.23,9.23,0,0,1,372.41,27.8Z"/><path d="M439.67,114q-2.51,3.83-6.16,3.83c-1.89,0-5-1.12-9.33-3.33v-2q0-3.66.17-10.82t.17-10.49q0-35.62-10.6-35.63c-2,0-4.25,1.56-6.78,4.66q-11.76,14.33-11.76,34.47a47.66,47.66,0,0,0,1.09,8.4,48.5,48.5,0,0,1,1.08,8.41,4.48,4.48,0,0,1-2.17,3.83,8,8,0,0,1-4.66,1.5q-10,0-10-12.66V69.42a31.83,31.83,0,0,1,.34-3.91,33.48,33.48,0,0,0,.33-3.91,41.62,41.62,0,0,0-.58-5.83,41.83,41.83,0,0,1-.59-5.66c0-1.77,1-3.47,3.08-5.08s3.92-2.41,5.58-2.41q3.66,0,7.49,4.16l-.5,6.66Q402,43.62,411,43.62q5.84,0,12.32,4a27.62,27.62,0,0,1,9.49,9q6.82,12.66,6.83,33.3Z"/></g></g></svg>